{"title":"Euro.Angels.Hardball.17.Anal.Savants.DVDRip.x264.Iou1","uid":9434815,"size":1464238950,"categoryP":"porn","categoryS":"movies","magnet":"?xt=urn:btih:81253ec6e01162ab4809ca394c03936c2e02db07&amp;dn=Euro.Angels.Hardball.17.Anal.Savants.DVDRip.x264.Iou1&amp;tr=udp%3A%2F%2Ftracker.openbittorrent.com%3A80&amp;tr=udp%3A%2F%2Fopen.demonii.com%3A1337&amp;tr=udp%3A%2F%2Ftracker.coppersurfer.tk%3A6969&amp;tr=udp%3A%2F%2Fexodus.desync.com%3A6969","seeders":0,"leechers":2,"uploader":"jaybee211","files":-1,"time":1388882655,"description":"Genre                                    : XXX\nFormat                                   : MPEG-4\nFormat profile                           : Base Media / Version 2\nCodec ID                                 : mp42\nFile size                                : 1.36 GiB\nDuration                                 : 2h 13mn\nOverall bit rate mode                    : Variable\nOverall bit rate                         : 1 466 Kbps\n\nVideo\nID                                       : 1\nFormat                                   : AVC\nFormat/Info                              : Advanced Video Codec\nFormat profile                           : &lt;a class=&quot;__cf_email__&quot; href=&quot;/cdn-cgi/l/email-protection&quot; data-cfemail=&quot;440c2d232c0408776a75&quot;&gt;[email&amp;#160;protected]&lt;/a&gt;&lt;script cf-hash='f9e31' type=&quot;text/javascript&quot;&gt;\n/* &lt;![CDATA[ */!function(){try{var t=&quot;currentScript&quot;in document?document.currentScript:function(){for(var t=document.getElementsByTagName(&quot;script&quot;),e=t.length;e--;)if(t[e].getAttribute(&quot;cf-hash&quot;))return t[e]}();if(t&amp;&amp;t.previousSibling){var e,r,n,i,c=t.previousSibling,a=c.getAttribute(&quot;data-cfemail&quot;);if(a){for(e=&quot;&quot;,r=parseInt(a.substr(0,2),16),n=2;a.length-n;n+=2)i=parseInt(a.substr(n,2),16)^r,e+=String.fromCharCode(i);e=document.createTextNode(e),c.parentNode.replaceChild(e,c)}}}catch(u){}}();/* ]]&gt; */&lt;/script&gt;\nFormat settings, CABAC                   : Yes\nFormat settings, ReFrames                : 4 frames\nCodec ID                                 : avc1\nCodec ID/Info                            : Advanced Video Coding\nDuration                                 : 2h 13mn\nBit rate mode                            : Variable\nBit rate                                 : 1 399 Kbps\nMaximum bit rate                         : 2 977 Kbps\nWidth                                    : 720 pixels\nHeight                                   : 540 pixels\nDisplay aspect ratio                     : 4:3\nFrame rate mode                          : Constant\nFrame rate                               : 29.970 fps\nStandard                                 : NTSC\nColor space                              : YUV\nChroma subsampling                       : 4:2:0\nBit depth                                : 8 bits\nScan type                                : Progressive\nBits/(Pixel*Frame)                       : 0.120\nStream size                              : 1.30 GiB (95%)\n\nAudio\nID                                       : 2\nFormat                                   : AAC\nFormat/Info                              : Advanced Audio Codec\nFormat profile                           : LC\nCodec ID                                 : 40\nDuration                                 : 2h 13mn\nBit rate mode                            : Variable\nBit rate                                 : 62.0 Kbps\nMaximum bit rate                         : 73.3 Kbps\nChannel(s)                               : 2 channels\nChannel positions                        : Front: L R\nSampling rate                            : 48.0 KHz\nCompression mode                         : Lossy\nStream size                              : 59.0 MiB (4%)\nLanguage                                 : English\n\nScreens. &lt;a href=&quot; http://bayimg.com/jafNmAAFp&quot; rel=&quot;nofollow&quot; target=&quot;_NEW&quot;&gt; http://bayimg.com/jafNmAAFp&lt;/a&gt;\n\nCovers. &lt;a href=&quot; http://bayimg.com/JAfnnaAFp&quot; rel=&quot;nofollow&quot; target=&quot;_NEW&quot;&gt; http://bayimg.com/JAfnnaAFp&lt;/a&gt;\n\n        &lt;a href=&quot; http://bayimg.com/kAfNBAafP&quot; rel=&quot;nofollow&quot; target=&quot;_NEW&quot;&gt; http://bayimg.com/kAfNBAafP&lt;/a&gt;\n\nEnjoy.","torrent":{"xt":"urn:btih:81253ec6e01162ab4809ca394c03936c2e02db07","amp;dn":"Euro.Angels.Hardball.17.Anal.Savants.DVDRip.x264.Iou1","amp;tr":["udp%3A%2F%2Ftracker.openbittorrent.com%3A80","udp%3A%2F%2Fopen.demonii.com%3A1337","udp%3A%2F%2Ftracker.coppersurfer.tk%3A6969","udp%3A%2F%2Fexodus.desync.com%3A6969"],"infoHash":"81253ec6e01162ab4809ca394c03936c2e02db07","infoHashBuffer":{"type":"Buffer","data":[129,37,62,198,224,17,98,171,72,9,202,57,76,3,147,108,46,2,219,7]},"announce":[],"urlList":[]}}